<?xml version="1.0" encoding="UTF-8" standalone="no"?>
<!-- Created with Inkscape (http://www.inkscape.org/) -->

<svg
   xmlns:dc="http://purl.org/dc/elements/1.1/"
   xmlns:cc="http://creativecommons.org/ns#"
   xmlns:rdf="http://www.w3.org/1999/02/22-rdf-syntax-ns#"
   xmlns:svg="http://www.w3.org/2000/svg"
   xmlns="http://www.w3.org/2000/svg"
   version="1.1"
   width="42"
   height="19.000011"
   id="svg3077">
  <defs
     id="defs3079">
    <clipPath
       id="clipPath3796">
      <path
         d="m 573.28571,317.1479 40,0 0,19 -40,0 z"
         id="path3798"
         style="fill:#41547f;fill-opacity:1;stroke:none" />
    </clipPath>
  </defs>
  <metadata
     id="metadata3082">
    <rdf:RDF>
      <cc:Work
         rdf:about="">
        <dc:format>image/svg+xml</dc:format>
        <dc:type
           rdf:resource="http://purl.org/dc/dcmitype/StillImage" />
        <dc:title></dc:title>
      </cc:Work>
    </rdf:RDF>
  </metadata>
  <g
     transform="translate(-573.28571,-317.14789)"
     id="layer1">
    <rect
       width="38"
       height="17"
       x="574.28571"
       y="318.14789"
       id="rect4073"
       style="fill:#c4caca;fill-opacity:1;stroke:#41547f;stroke-width:1.99999964;stroke-miterlimit:4;stroke-opacity:1;stroke-dasharray:none" />
    <path
       d="m 573.28571,317.1479 40,0 0,19 -40,0 z"
       id="rect4069"
       style="fill:#41547f;fill-opacity:1;stroke:none" />
    <g
       clip-path="url(#clipPath3796)"
       id="g3791">
      <path
         d="m 597.03098,312.1479 -26.48796,0 -4.02051,25 24.08525,0 z"
         id="path3015"
         style="fill:#ac3939;fill-opacity:1;stroke:none" />
      <path
         d="m 621.21523,312.1479 -22.13305,0 -8,25 26.71322,0 z"
         id="path3789"
         style="fill:#41547f;fill-opacity:1;stroke:none" />
    </g>
    <path
       d="m 583.78571,329.1479 11.00001,-8.00001 -2e-5,5.50001 8.00001,-2.50001 -11,8.00001 0,-5.48027 z"
       id="path4116"
       style="fill:#ac3939;fill-opacity:1;stroke:none" />
    <rect
       width="3"
       height="5"
       x="612.28571"
       y="324.14789"
       id="rect4075"
       style="fill:#41547f;fill-opacity:1;stroke:none" />
    <path
       d="M 31.34375,7.0625 20.40625,15 l 8,-2.46875 0,5.46875 0.15625,-0.125 2.78125,-10.8125 z"
       transform="translate(563.36895,314.14771)"
       id="path3813"
       style="fill:#41547f;fill-opacity:1;stroke:none" />
  </g>
</svg>
